/* XPM */
static char *sprite[] = {
/* columns rows colors chars-per-pixel */
"64 64 184 2 ",
"   c None",
".  c #010100",
"X  c #0A0A0A",
"o  c #0C0705",
"O  c #1E0E07",
"+  c #1A0E08",
"@  c #131313",
"#  c #1A1614",
"$  c #1A1A1A",
"%  c #1D1917",
"&  c #24120A",
"*  c #2F150A",
"=  c #231007",
"-  c #381A0C",
";  c #2B1C15",
":  c #201C1A",
">  c #201611",
",  c #2D211B",
"<  c #23201F",
"1  c #3B2215",
"2  c #3A261C",
"3  c #38241B",
"4  c #242424",
"5  c #2E2E2E",
"6  c #3E2E26",
"7  c #3A3736",
"8  c #3B3B3B",
"9  c #46200F",
"0  c #4C2310",
"q  c #43281C",
"w  c #4D2B1C",
"e  c #4D2817",
"r  c #5C2912",
"t  c #532E1C",
"y  c #582A15",
"u  c #57311E",
"i  c #5C311D",
"p  c #642D15",
"a  c #682F15",
"s  c #6B3116",
"d  c #65331C",
"f  c #6C351C",
"g  c #703317",
"h  c #743519",
"j  c #79371A",
"k  c #75391E",
"l  c #7E3A1B",
"z  c #5A3828",
"x  c #433B38",
"c  c #6C3A21",
"v  c #6B3F2B",
"b  c #7A3D21",
"n  c #154F3F",
"m  c #395039",
"M  c #3A5A3C",
"N  c #594E32",
"B  c #5D5B3C",
"V  c #5B5538",
"C  c #454D35",
"Z  c #7C4025",
"A  c #714A38",
"S  c #705434",
"D  c #5B643B",
"F  c #185947",
"G  c #3C5E45",
"H  c #285548",
"J  c #20614D",
"K  c #256552",
"L  c #346B56",
"P  c #34735F",
"I  c #397961",
"U  c #444444",
"Y  c #4A4746",
"T  c #4C5444",
"R  c #795545",
"E  c #6E5749",
"W  c #4D6E51",
"Q  c #5A7A61",
"!  c #4A7763",
"~  c #6C7E60",
"^  c #7D7D7D",
"/  c #843D1C",
"(  c #893F1D",
")  c #813F21",
"_  c #8D411E",
"`  c #92431F",
"'  c #824123",
"]  c #8C4321",
"[  c #8F4828",
"{  c #954520",
"}  c #9A4721",
"|  c #934925",
" . c #9D4922",
".. c #934E2F",
"X. c #8B542F",
"o. c #9C572D",
"O. c #8E5932",
"+. c #995C33",
"@. c #A34C23",
"#. c #A94F25",
"$. c #A45127",
"%. c #AE5126",
"&. c #AD5328",
"*. c #A55028",
"=. c #B15326",
"-. c #B55629",
";. c #B95728",
":. c #BC5829",
">. c #B2582E",
",. c #AB5C38",
"<. c #A26734",
"1. c #BB6E34",
"2. c #C45C2B",
"3. c #805F50",
"4. c #9B664E",
"5. c #8D6A5A",
"6. c #936652",
"7. c #A66642",
"8. c #B26542",
"9. c #B66D4B",
"0. c #AF7357",
"q. c #B3775A",
"w. c #B97150",
"e. c #837169",
"r. c #837E7C",
"t. c #A87B65",
"y. c #A57A66",
"u. c #B37D63",
"i. c #C16940",
"p. c #63835E",
"a. c #5C857A",
"s. c #7C9063",
"d. c #6F9073",
"f. c #7E9372",
"g. c #7B8868",
"h. c #8C8A52",
"j. c #9F9358",
"k. c #988345",
"l. c #969969",
"z. c #8B9170",
"x. c #939874",
"c. c #B18068",
"v. c #BA8A74",
"b. c #B58D7B",
"n. c #A98A7B",
"m. c #C1886D",
"M. c #6C9186",
"N. c #739688",
"B. c #779B91",
"V. c #79A092",
"C. c #8B8B8B",
"Z. c #848382",
"A. c #869788",
"S. c #99928D",
"D. c #959595",
"F. c #999999",
"G. c #AC958A",
"H. c #A4958A",
"J. c #B49181",
"K. c #B99787",
"L. c #AF9F97",
"P. c #98A09E",
"I. c #AAA19D",
"U. c #BAA49A",
"Y. c #A3A3A3",
"T. c #AAAAAA",
"R. c #A3ABA9",
"E. c #B4ACA9",
"W. c #B8B0AC",
"Q. c #B3B4B3",
"!. c #BBBBBB",
"~. c #B8B3B0",
"^. c #C4AB9F",
"/. c #CBBFB5",
"(. c #B0C3BB",
"). c #CBC3BF",
"_. c #C4C4C4",
"`. c #CBC8C7",
"'. c #CACACA",
"]. c #C6CBCA",
"[. c #D2D2D2",
"{. c #D9D6D5",
"}. c #DCDCDC",
"|. c #E3E3E3",
/* pixels */
"                                                                                                                                ",
"                                                                                                                                ",
"                                                                                                                                ",
"                                                                                                                                ",
"                                                                                                                                ",
"                                                                                                                                ",
"                                                                                                                                ",
"                                                                                                                                ",
"                                                                                                                                ",
"                                                                                                                                ",
"                                                                                                                                ",
"                                                            . _                                                                 ",
"                                                        . X X /                                                                 ",
"            { .                 / / /           . . . X @ 8 5 _                                                                 ",
"            _ # @ . .         ( ( ( _ ` { ` / 0 * o @ 5 U 8 $ _                                                                 ",
"            _ 7 U # . . =   ` ` ` }  .@.#.} _ @.@.t z Y U 4 . /                                                                 ",
"            _ < 8 Y @ * p l /  .@.@.@.@.%.@.%.@.%.@.} 6 5 # . /                                                                 ",
"            / # < Y 8 b l  . .@.%.%.=.=.%.%.=.:.=.#. .i # . - /                                                                 ",
"            _ . 4 8 z |  .-.:.2.2.2.2.2.2.2.:.:.:.=.=.} 0 * ` _                                                                 ",
"              0 @ t _ ` %.l 2.2.@._ 2.2.2.2.2.2.2.:.=.@./ g (                                                                   ",
"               .. j `  .0 * 2.2.l * ] 2.2.2.2.2.2.2.;.#./ g                                                                     ",
"                p ` %.=.g / 2.2.@.s { 2.2.2.2.2.2.2.=.=.} /                                                     Q.              ",
"                  $.$.N S 2.2.2.2.2.+.D B V +.2.2.2.:.=.@.(                                                     Q.T.            ",
"                  _ C H I.i.K.m.:.+.G F n n m o.2.2.2.=.@.`                                                     !.F.            ",
"                  | D K N.^.!.K.O.W P P V.a.F m o.2.2.%.#.`                                                   ].!.F.Y.          ",
"                   .k.Q l./.[._.A.P ! L V.(.x.M X.2.2.%.%.(                             l / l / (           '.`.!.Y.F.          ",
"                   .<.p.z.R 5.R T L g.f.s.x.j.<. .y.G.G.,.(   g                       ( ( ` ( / _ _ _     '.`._._.Y.D.          ",
"              /   U.] 7.S.i v i E N.L d.p.W h.1.v.E.Q.0.*._  .s                     ( ` _ ` } #.#.@.} @.I.!._._.Q.C.D.          ",
"                ' '.S.E._.L.i R _.'.M.K K J A.).W.Q.q.&. . .s s l                 ( } ` } #.@.@.@. . .@.,.,.Q.!.Q.C.D.          ",
"                ' !.'.}.}.{._./.'._.T.P.P.R.Q.!.!.!.W.8.{ / l g               g / ` ` @.%.=.=.#.#.@. .}  .{ ..~.T.D.D.          ",
"              _ ' !.|.|.}.}.}.}.}.}.'.`._.!._.!.!.!.!.8.{ g _                 l ( ( ` #.=.=.%.=.=.=.=.#.%.#.%./.Y.C.D.          ",
"                l l >.9.}.}.}.}.}.}.[.`.v.b.!.!.0.&.| / g  .  a             / ( } #.=.=.=.;.2.2.2.2.2.2.2.2.&.Y.F.^ C.          ",
"              l / _ ` { %.w.{.{.}.}.}.[.v.:.;.J.4._ / ( #.` h               / } =.=.;.2.2.2.2.2.2.2.2.2.2.:.=._ / Z.C.          ",
"                    =.%. . .{ 6.{.}.[._.v.:.2.;._             ( _ } _ ( j a ` %.%.;.2.2.2.2.2.2.2.2.2.2.:.%. .` { l             ",
"                  r        .{ / `   [._.v.;.2.=.`           / / ` / ( @. .( / #.:.2.2.2.2.2.2.2.2.2.2.-.%.@.` _ } g             ",
"                                /   [.!.u.;.2.2.@.l / / ` ` @.=.=.=.=.@.#.} @.2.:.;.#.%.=.2.2.2.2.:.-.%.@.} _ _ /               ",
"                                    '.T.u.2.2.:.@.` / }  .%.=.=.=.2.2.=.@.=.2.:.@.{ } } @.%.%.=.%.=.=.@.} ( ( l g               ",
"                                  }.'.T.u.2.2.2.%.} ` @.@.%.%.2.2.:.2.2.2.2.2.=.` j l / ` } #.%.#.#.#.} _ g l g                 ",
"                                  }.'.T.u.2.2.2.:.=.=.=.=.%.%.2.:.#.=.2.2.2.:.} l j l / / `  .} } { _ ( / j h                   ",
"                                  }._.Y.u.2.2.2.2.:.=.%.=.=.=.2.#.#.;.2.2.2.:. .( /         / ( ( l l / ( /                     ",
"                                  }.!.S.9.2.2.2.2.2.-.=.=.=.;.` @.;.2.2.2.2.>._ / _           / g g j / _                       ",
"                                  [.Q.y.=.2.2.2.2.2.:.;.;.2.` y ` 2.2.2.2.2.:. ./ /                                             ",
"                                  '.T.t.=.2.2.2.2.2.2.2.:.:.a a / 2.2.2.2.2.:. ./ l                                             ",
"                                  '.T.t.=.2.2.2.2.2.2.:.=.} r / ` 2.2.2.2.2.:.&.] l                                             ",
"                                  _.T.y.=.2.2.2.2.2.2.-.=.j r h #.2.2.2.2.:.&. .) d                                             ",
"                                    G.8.:.2.2.2.2.2.:.=.@.h a h =.2.2.2.>.&. .b c 0                                             ",
"                                  4 A @.=.2.2.2.2.2.-.=.@.j a a } 2.2.-.*.| ' c e 1                                             ",
"                                . . 9 @.:.2.2.:.-. .t.J.n.) a s ` @.@. .| ' c t 1 ;                                             ",
"                              . . . * ]  . .@.` ( 6.C.D.C.e.i h s / ' ' Z c u q ; >                                             ",
"                            . . . . * u z c k g 5.^ Z.      + O l k c c z e q 3 # #                                             ",
"                                    1 z e t i                 . O O O & e 2 , : @ @                                             ",
"                                    # 3 3 ;                     . . . o 2 , : $ X @                                             ",
"                                $ $ $ $ #                       . . . .       @ @ @                                             ",
"                                $ @ @ # $                         . .         @ @                                               ",
"                              @ @ @ @                             .             @                                               ",
"                                                                                                                                ",
"                                                                                                                                ",
"                                                                                                                                ",
"                                                                                                                                ",
"                                                                                                                                ",
"                                                                                                                                ",
"                                                                                                                                ",
"                                                                                                                                ",
"                                                                                                                                "
};
